<?xml version="1.0" encoding="utf-8" standalone="no"?>
<!DOCTYPE svg PUBLIC "-//W3C//DTD SVG 1.1//EN"
  "http://www.w3.org/Graphics/SVG/1.1/DTD/svg11.dtd">
<!-- Created with matplotlib (https://matplotlib.org/) -->
<svg height="569.52pt" version="1.1" viewBox="0 0 1036.8 569.52" width="1036.8pt" xmlns="http://www.w3.org/2000/svg" xmlns:xlink="http://www.w3.org/1999/xlink">
 <defs>
  <style type="text/css">
*{stroke-linecap:butt;stroke-linejoin:round;}
  </style>
 </defs>
 <g id="figure_1">
  <g id="patch_1">
   <path d="M 0 569.52 
L 1036.8 569.52 
L 1036.8 0 
L 0 0 
z
" style="fill:#ffffff;"/>
  </g>
  <g id="axes_1">
   <g id="patch_2">
    <path d="M 129.6 506.8728 
L 933.12 506.8728 
L 933.12 68.3424 
L 129.6 68.3424 
z
" style="fill:#ffffff;"/>
   </g>
   <g id="PathCollection_1">
    <defs>
     <path d="M 0 3 
C 0.795609 3 1.55874 2.683901 2.12132 2.12132 
C 2.683901 1.55874 3 0.795609 3 0 
C 3 -0.795609 2.683901 -1.55874 2.12132 -2.12132 
C 1.55874 -2.683901 0.795609 -3 0 -3 
C -0.795609 -3 -1.55874 -2.683901 -2.12132 -2.12132 
C -2.683901 -1.55874 -3 -0.795609 -3 0 
C -3 0.795609 -2.683901 1.55874 -2.12132 2.12132 
C -1.55874 2.683901 -0.795609 3 0 3 
z
" id="m6584ce735d" style="stroke:#ff0000;"/>
    </defs>
    <g clip-path="url(#p8fa56a657c)">
     <use style="fill:#ff0000;stroke:#ff0000;" x="590.990427" xlink:href="#m6584ce735d" y="369.591391"/>
     <use style="fill:#ff0000;stroke:#ff0000;" x="723.295436" xlink:href="#m6584ce735d" y="121.46701"/>
     <use style="fill:#ff0000;stroke:#ff0000;" x="835.102486" xlink:href="#m6584ce735d" y="118.888759"/>
    </g>
   </g>
   <g id="matplotlib.axis_1">
    <g id="xtick_1">
     <g id="line2d_1">
      <defs>
       <path d="M 0 0 
L 0 3.5 
" id="m5c27a7f1eb" style="stroke:#000000;stroke-width:0.8;"/>
      </defs>
      <g>
       <use style="stroke:#000000;stroke-width:0.8;" x="166.123636" xlink:href="#m5c27a7f1eb" y="506.8728"/>
      </g>
     </g>
     <g id="text_1">
      <!-- 0 -->
      <defs>
       <path d="M 31.78125 66.40625 
Q 24.171875 66.40625 20.328125 58.90625 
Q 16.5 51.421875 16.5 36.375 
Q 16.5 21.390625 20.328125 13.890625 
Q 24.171875 6.390625 31.78125 6.390625 
Q 39.453125 6.390625 43.28125 13.890625 
Q 47.125 21.390625 47.125 36.375 
Q 47.125 51.421875 43.28125 58.90625 
Q 39.453125 66.40625 31.78125 66.40625 
z
M 31.78125 74.21875 
Q 44.046875 74.21875 50.515625 64.515625 
Q 56.984375 54.828125 56.984375 36.375 
Q 56.984375 17.96875 50.515625 8.265625 
Q 44.046875 -1.421875 31.78125 -1.421875 
Q 19.53125 -1.421875 13.0625 8.265625 
Q 6.59375 17.96875 6.59375 36.375 
Q 6.59375 54.828125 13.0625 64.515625 
Q 19.53125 74.21875 31.78125 74.21875 
z
" id="DejaVuSans-48"/>
      </defs>
      <g transform="translate(162.942386 521.471238)scale(0.1 -0.1)">
       <use xlink:href="#DejaVuSans-48"/>
      </g>
     </g>
    </g>
    <g id="xtick_2">
     <g id="line2d_2">
      <g>
       <use style="stroke:#000000;stroke-width:0.8;" x="259.296178" xlink:href="#m5c27a7f1eb" y="506.8728"/>
      </g>
     </g>
     <g id="text_2">
      <!-- 50 -->
      <defs>
       <path d="M 10.796875 72.90625 
L 49.515625 72.90625 
L 49.515625 64.59375 
L 19.828125 64.59375 
L 19.828125 46.734375 
Q 21.96875 47.46875 24.109375 47.828125 
Q 26.265625 48.1875 28.421875 48.1875 
Q 40.625 48.1875 47.75 41.5 
Q 54.890625 34.8125 54.890625 23.390625 
Q 54.890625 11.625 47.5625 5.09375 
Q 40.234375 -1.421875 26.90625 -1.421875 
Q 22.3125 -1.421875 17.546875 -0.640625 
Q 12.796875 0.140625 7.71875 1.703125 
L 7.71875 11.625 
Q 12.109375 9.234375 16.796875 8.0625 
Q 21.484375 6.890625 26.703125 6.890625 
Q 35.15625 6.890625 40.078125 11.328125 
Q 45.015625 15.765625 45.015625 23.390625 
Q 45.015625 31 40.078125 35.4375 
Q 35.15625 39.890625 26.703125 39.890625 
Q 22.75 39.890625 18.8125 39.015625 
Q 14.890625 38.140625 10.796875 36.28125 
z
" id="DejaVuSans-53"/>
      </defs>
      <g transform="translate(252.933678 521.471238)scale(0.1 -0.1)">
       <use xlink:href="#DejaVuSans-53"/>
       <use x="63.623047" xlink:href="#DejaVuSans-48"/>
      </g>
     </g>
    </g>
    <g id="xtick_3">
     <g id="line2d_3">
      <g>
       <use style="stroke:#000000;stroke-width:0.8;" x="352.46872" xlink:href="#m5c27a7f1eb" y="506.8728"/>
      </g>
     </g>
     <g id="text_3">
      <!-- 100 -->
      <defs>
       <path d="M 12.40625 8.296875 
L 28.515625 8.296875 
L 28.515625 63.921875 
L 10.984375 60.40625 
L 10.984375 69.390625 
L 28.421875 72.90625 
L 38.28125 72.90625 
L 38.28125 8.296875 
L 54.390625 8.296875 
L 54.390625 0 
L 12.40625 0 
z
" id="DejaVuSans-49"/>
      </defs>
      <g transform="translate(342.92497 521.471238)scale(0.1 -0.1)">
       <use xlink:href="#DejaVuSans-49"/>
       <use x="63.623047" xlink:href="#DejaVuSans-48"/>
       <use x="127.246094" xlink:href="#DejaVuSans-48"/>
      </g>
     </g>
    </g>
    <g id="xtick_4">
     <g id="line2d_4">
      <g>
       <use style="stroke:#000000;stroke-width:0.8;" x="445.641262" xlink:href="#m5c27a7f1eb" y="506.8728"/>
      </g>
     </g>
     <g id="text_4">
      <!-- 150 -->
      <g transform="translate(436.097512 521.471238)scale(0.1 -0.1)">
       <use xlink:href="#DejaVuSans-49"/>
       <use x="63.623047" xlink:href="#DejaVuSans-53"/>
       <use x="127.246094" xlink:href="#DejaVuSans-48"/>
      </g>
     </g>
    </g>
    <g id="xtick_5">
     <g id="line2d_5">
      <g>
       <use style="stroke:#000000;stroke-width:0.8;" x="538.813803" xlink:href="#m5c27a7f1eb" y="506.8728"/>
      </g>
     </g>
     <g id="text_5">
      <!-- 200 -->
      <defs>
       <path d="M 19.1875 8.296875 
L 53.609375 8.296875 
L 53.609375 0 
L 7.328125 0 
L 7.328125 8.296875 
Q 12.9375 14.109375 22.625 23.890625 
Q 32.328125 33.6875 34.8125 36.53125 
Q 39.546875 41.84375 41.421875 45.53125 
Q 43.3125 49.21875 43.3125 52.78125 
Q 43.3125 58.59375 39.234375 62.25 
Q 35.15625 65.921875 28.609375 65.921875 
Q 23.96875 65.921875 18.8125 64.3125 
Q 13.671875 62.703125 7.8125 59.421875 
L 7.8125 69.390625 
Q 13.765625 71.78125 18.9375 73 
Q 24.125 74.21875 28.421875 74.21875 
Q 39.75 74.21875 46.484375 68.546875 
Q 53.21875 62.890625 53.21875 53.421875 
Q 53.21875 48.921875 51.53125 44.890625 
Q 49.859375 40.875 45.40625 35.40625 
Q 44.1875 33.984375 37.640625 27.21875 
Q 31.109375 20.453125 19.1875 8.296875 
z
" id="DejaVuSans-50"/>
      </defs>
      <g transform="translate(529.270053 521.471238)scale(0.1 -0.1)">
       <use xlink:href="#DejaVuSans-50"/>
       <use x="63.623047" xlink:href="#DejaVuSans-48"/>
       <use x="127.246094" xlink:href="#DejaVuSans-48"/>
      </g>
     </g>
    </g>
    <g id="xtick_6">
     <g id="line2d_6">
      <g>
       <use style="stroke:#000000;stroke-width:0.8;" x="631.986345" xlink:href="#m5c27a7f1eb" y="506.8728"/>
      </g>
     </g>
     <g id="text_6">
      <!-- 250 -->
      <g transform="translate(622.442595 521.471238)scale(0.1 -0.1)">
       <use xlink:href="#DejaVuSans-50"/>
       <use x="63.623047" xlink:href="#DejaVuSans-53"/>
       <use x="127.246094" xlink:href="#DejaVuSans-48"/>
      </g>
     </g>
    </g>
    <g id="xtick_7">
     <g id="line2d_7">
      <g>
       <use style="stroke:#000000;stroke-width:0.8;" x="725.158887" xlink:href="#m5c27a7f1eb" y="506.8728"/>
      </g>
     </g>
     <g id="text_7">
      <!-- 300 -->
      <defs>
       <path d="M 40.578125 39.3125 
Q 47.65625 37.796875 51.625 33 
Q 55.609375 28.21875 55.609375 21.1875 
Q 55.609375 10.40625 48.1875 4.484375 
Q 40.765625 -1.421875 27.09375 -1.421875 
Q 22.515625 -1.421875 17.65625 -0.515625 
Q 12.796875 0.390625 7.625 2.203125 
L 7.625 11.71875 
Q 11.71875 9.328125 16.59375 8.109375 
Q 21.484375 6.890625 26.8125 6.890625 
Q 36.078125 6.890625 40.9375 10.546875 
Q 45.796875 14.203125 45.796875 21.1875 
Q 45.796875 27.640625 41.28125 31.265625 
Q 36.765625 34.90625 28.71875 34.90625 
L 20.21875 34.90625 
L 20.21875 43.015625 
L 29.109375 43.015625 
Q 36.375 43.015625 40.234375 45.921875 
Q 44.09375 48.828125 44.09375 54.296875 
Q 44.09375 59.90625 40.109375 62.90625 
Q 36.140625 65.921875 28.71875 65.921875 
Q 24.65625 65.921875 20.015625 65.03125 
Q 15.375 64.15625 9.8125 62.3125 
L 9.8125 71.09375 
Q 15.4375 72.65625 20.34375 73.4375 
Q 25.25 74.21875 29.59375 74.21875 
Q 40.828125 74.21875 47.359375 69.109375 
Q 53.90625 64.015625 53.90625 55.328125 
Q 53.90625 49.265625 50.4375 45.09375 
Q 46.96875 40.921875 40.578125 39.3125 
z
" id="DejaVuSans-51"/>
      </defs>
      <g transform="translate(715.615137 521.471238)scale(0.1 -0.1)">
       <use xlink:href="#DejaVuSans-51"/>
       <use x="63.623047" xlink:href="#DejaVuSans-48"/>
       <use x="127.246094" xlink:href="#DejaVuSans-48"/>
      </g>
     </g>
    </g>
    <g id="xtick_8">
     <g id="line2d_8">
      <g>
       <use style="stroke:#000000;stroke-width:0.8;" x="818.331429" xlink:href="#m5c27a7f1eb" y="506.8728"/>
      </g>
     </g>
     <g id="text_8">
      <!-- 350 -->
      <g transform="translate(808.787679 521.471238)scale(0.1 -0.1)">
       <use xlink:href="#DejaVuSans-51"/>
       <use x="63.623047" xlink:href="#DejaVuSans-53"/>
       <use x="127.246094" xlink:href="#DejaVuSans-48"/>
      </g>
     </g>
    </g>
    <g id="xtick_9">
     <g id="line2d_9">
      <g>
       <use style="stroke:#000000;stroke-width:0.8;" x="911.50397" xlink:href="#m5c27a7f1eb" y="506.8728"/>
      </g>
     </g>
     <g id="text_9">
      <!-- 400 -->
      <defs>
       <path d="M 37.796875 64.3125 
L 12.890625 25.390625 
L 37.796875 25.390625 
z
M 35.203125 72.90625 
L 47.609375 72.90625 
L 47.609375 25.390625 
L 58.015625 25.390625 
L 58.015625 17.1875 
L 47.609375 17.1875 
L 47.609375 0 
L 37.796875 0 
L 37.796875 17.1875 
L 4.890625 17.1875 
L 4.890625 26.703125 
z
" id="DejaVuSans-52"/>
      </defs>
      <g transform="translate(901.96022 521.471238)scale(0.1 -0.1)">
       <use xlink:href="#DejaVuSans-52"/>
       <use x="63.623047" xlink:href="#DejaVuSans-48"/>
       <use x="127.246094" xlink:href="#DejaVuSans-48"/>
      </g>
     </g>
    </g>
    <g id="text_10">
     <!-- Time -->
     <defs>
      <path d="M -0.296875 72.90625 
L 61.375 72.90625 
L 61.375 64.59375 
L 35.5 64.59375 
L 35.5 0 
L 25.59375 0 
L 25.59375 64.59375 
L -0.296875 64.59375 
z
" id="DejaVuSans-84"/>
      <path d="M 9.421875 54.6875 
L 18.40625 54.6875 
L 18.40625 0 
L 9.421875 0 
z
M 9.421875 75.984375 
L 18.40625 75.984375 
L 18.40625 64.59375 
L 9.421875 64.59375 
z
" id="DejaVuSans-105"/>
      <path d="M 52 44.1875 
Q 55.375 50.25 60.0625 53.125 
Q 64.75 56 71.09375 56 
Q 79.640625 56 84.28125 50.015625 
Q 88.921875 44.046875 88.921875 33.015625 
L 88.921875 0 
L 79.890625 0 
L 79.890625 32.71875 
Q 79.890625 40.578125 77.09375 44.375 
Q 74.3125 48.1875 68.609375 48.1875 
Q 61.625 48.1875 57.5625 43.546875 
Q 53.515625 38.921875 53.515625 30.90625 
L 53.515625 0 
L 44.484375 0 
L 44.484375 32.71875 
Q 44.484375 40.625 41.703125 44.40625 
Q 38.921875 48.1875 33.109375 48.1875 
Q 26.21875 48.1875 22.15625 43.53125 
Q 18.109375 38.875 18.109375 30.90625 
L 18.109375 0 
L 9.078125 0 
L 9.078125 54.6875 
L 18.109375 54.6875 
L 18.109375 46.1875 
Q 21.1875 51.21875 25.484375 53.609375 
Q 29.78125 56 35.6875 56 
Q 41.65625 56 45.828125 52.96875 
Q 50 49.953125 52 44.1875 
z
" id="DejaVuSans-109"/>
      <path d="M 56.203125 29.59375 
L 56.203125 25.203125 
L 14.890625 25.203125 
Q 15.484375 15.921875 20.484375 11.0625 
Q 25.484375 6.203125 34.421875 6.203125 
Q 39.59375 6.203125 44.453125 7.46875 
Q 49.3125 8.734375 54.109375 11.28125 
L 54.109375 2.78125 
Q 49.265625 0.734375 44.1875 -0.34375 
Q 39.109375 -1.421875 33.890625 -1.421875 
Q 20.796875 -1.421875 13.15625 6.1875 
Q 5.515625 13.8125 5.515625 26.8125 
Q 5.515625 40.234375 12.765625 48.109375 
Q 20.015625 56 32.328125 56 
Q 43.359375 56 49.78125 48.890625 
Q 56.203125 41.796875 56.203125 29.59375 
z
M 47.21875 32.234375 
Q 47.125 39.59375 43.09375 43.984375 
Q 39.0625 48.390625 32.421875 48.390625 
Q 24.90625 48.390625 20.390625 44.140625 
Q 15.875 39.890625 15.1875 32.171875 
z
" id="DejaVuSans-101"/>
     </defs>
     <g transform="translate(515.456328 537.428894)scale(0.13 -0.13)">
      <use xlink:href="#DejaVuSans-84"/>
      <use x="57.958984" xlink:href="#DejaVuSans-105"/>
      <use x="85.742188" xlink:href="#DejaVuSans-109"/>
      <use x="183.154297" xlink:href="#DejaVuSans-101"/>
     </g>
    </g>
   </g>
   <g id="matplotlib.axis_2">
    <g id="ytick_1">
     <g id="line2d_10">
      <defs>
       <path d="M 0 0 
L -3.5 0 
" id="mcbde28ee64" style="stroke:#000000;stroke-width:0.8;"/>
      </defs>
      <g>
       <use style="stroke:#000000;stroke-width:0.8;" x="129.6" xlink:href="#mcbde28ee64" y="498.503916"/>
      </g>
     </g>
     <g id="text_11">
      <!-- −40 -->
      <defs>
       <path d="M 10.59375 35.5 
L 73.1875 35.5 
L 73.1875 27.203125 
L 10.59375 27.203125 
z
" id="DejaVuSans-8722"/>
      </defs>
      <g transform="translate(101.495312 502.303135)scale(0.1 -0.1)">
       <use xlink:href="#DejaVuSans-8722"/>
       <use x="83.789062" xlink:href="#DejaVuSans-52"/>
       <use x="147.412109" xlink:href="#DejaVuSans-48"/>
      </g>
     </g>
    </g>
    <g id="ytick_2">
     <g id="line2d_11">
      <g>
       <use style="stroke:#000000;stroke-width:0.8;" x="129.6" xlink:href="#mcbde28ee64" y="434.047654"/>
      </g>
     </g>
     <g id="text_12">
      <!-- −20 -->
      <g transform="translate(101.495312 437.846872)scale(0.1 -0.1)">
       <use xlink:href="#DejaVuSans-8722"/>
       <use x="83.789062" xlink:href="#DejaVuSans-50"/>
       <use x="147.412109" xlink:href="#DejaVuSans-48"/>
      </g>
     </g>
    </g>
    <g id="ytick_3">
     <g id="line2d_12">
      <g>
       <use style="stroke:#000000;stroke-width:0.8;" x="129.6" xlink:href="#mcbde28ee64" y="369.591391"/>
      </g>
     </g>
     <g id="text_13">
      <!-- 0 -->
      <g transform="translate(116.2375 373.39061)scale(0.1 -0.1)">
       <use xlink:href="#DejaVuSans-48"/>
      </g>
     </g>
    </g>
    <g id="ytick_4">
     <g id="line2d_13">
      <g>
       <use style="stroke:#000000;stroke-width:0.8;" x="129.6" xlink:href="#mcbde28ee64" y="305.135129"/>
      </g>
     </g>
     <g id="text_14">
      <!-- 20 -->
      <g transform="translate(109.875 308.934348)scale(0.1 -0.1)">
       <use xlink:href="#DejaVuSans-50"/>
       <use x="63.623047" xlink:href="#DejaVuSans-48"/>
      </g>
     </g>
    </g>
    <g id="ytick_5">
     <g id="line2d_14">
      <g>
       <use style="stroke:#000000;stroke-width:0.8;" x="129.6" xlink:href="#mcbde28ee64" y="240.678867"/>
      </g>
     </g>
     <g id="text_15">
      <!-- 40 -->
      <g transform="translate(109.875 244.478086)scale(0.1 -0.1)">
       <use xlink:href="#DejaVuSans-52"/>
       <use x="63.623047" xlink:href="#DejaVuSans-48"/>
      </g>
     </g>
    </g>
    <g id="ytick_6">
     <g id="line2d_15">
      <g>
       <use style="stroke:#000000;stroke-width:0.8;" x="129.6" xlink:href="#mcbde28ee64" y="176.222605"/>
      </g>
     </g>
     <g id="text_16">
      <!-- 60 -->
      <defs>
       <path d="M 33.015625 40.375 
Q 26.375 40.375 22.484375 35.828125 
Q 18.609375 31.296875 18.609375 23.390625 
Q 18.609375 15.53125 22.484375 10.953125 
Q 26.375 6.390625 33.015625 6.390625 
Q 39.65625 6.390625 43.53125 10.953125 
Q 47.40625 15.53125 47.40625 23.390625 
Q 47.40625 31.296875 43.53125 35.828125 
Q 39.65625 40.375 33.015625 40.375 
z
M 52.59375 71.296875 
L 52.59375 62.3125 
Q 48.875 64.0625 45.09375 64.984375 
Q 41.3125 65.921875 37.59375 65.921875 
Q 27.828125 65.921875 22.671875 59.328125 
Q 17.53125 52.734375 16.796875 39.40625 
Q 19.671875 43.65625 24.015625 45.921875 
Q 28.375 48.1875 33.59375 48.1875 
Q 44.578125 48.1875 50.953125 41.515625 
Q 57.328125 34.859375 57.328125 23.390625 
Q 57.328125 12.15625 50.6875 5.359375 
Q 44.046875 -1.421875 33.015625 -1.421875 
Q 20.359375 -1.421875 13.671875 8.265625 
Q 6.984375 17.96875 6.984375 36.375 
Q 6.984375 53.65625 15.1875 63.9375 
Q 23.390625 74.21875 37.203125 74.21875 
Q 40.921875 74.21875 44.703125 73.484375 
Q 48.484375 72.75 52.59375 71.296875 
z
" id="DejaVuSans-54"/>
      </defs>
      <g transform="translate(109.875 180.021823)scale(0.1 -0.1)">
       <use xlink:href="#DejaVuSans-54"/>
       <use x="63.623047" xlink:href="#DejaVuSans-48"/>
      </g>
     </g>
    </g>
    <g id="ytick_7">
     <g id="line2d_16">
      <g>
       <use style="stroke:#000000;stroke-width:0.8;" x="129.6" xlink:href="#mcbde28ee64" y="111.766342"/>
      </g>
     </g>
     <g id="text_17">
      <!-- 80 -->
      <defs>
       <path d="M 31.78125 34.625 
Q 24.75 34.625 20.71875 30.859375 
Q 16.703125 27.09375 16.703125 20.515625 
Q 16.703125 13.921875 20.71875 10.15625 
Q 24.75 6.390625 31.78125 6.390625 
Q 38.8125 6.390625 42.859375 10.171875 
Q 46.921875 13.96875 46.921875 20.515625 
Q 46.921875 27.09375 42.890625 30.859375 
Q 38.875 34.625 31.78125 34.625 
z
M 21.921875 38.8125 
Q 15.578125 40.375 12.03125 44.71875 
Q 8.5 49.078125 8.5 55.328125 
Q 8.5 64.0625 14.71875 69.140625 
Q 20.953125 74.21875 31.78125 74.21875 
Q 42.671875 74.21875 48.875 69.140625 
Q 55.078125 64.0625 55.078125 55.328125 
Q 55.078125 49.078125 51.53125 44.71875 
Q 48 40.375 41.703125 38.8125 
Q 48.828125 37.15625 52.796875 32.3125 
Q 56.78125 27.484375 56.78125 20.515625 
Q 56.78125 9.90625 50.3125 4.234375 
Q 43.84375 -1.421875 31.78125 -1.421875 
Q 19.734375 -1.421875 13.25 4.234375 
Q 6.78125 9.90625 6.78125 20.515625 
Q 6.78125 27.484375 10.78125 32.3125 
Q 14.796875 37.15625 21.921875 38.8125 
z
M 18.3125 54.390625 
Q 18.3125 48.734375 21.84375 45.5625 
Q 25.390625 42.390625 31.78125 42.390625 
Q 38.140625 42.390625 41.71875 45.5625 
Q 45.3125 48.734375 45.3125 54.390625 
Q 45.3125 60.0625 41.71875 63.234375 
Q 38.140625 66.40625 31.78125 66.40625 
Q 25.390625 66.40625 21.84375 63.234375 
Q 18.3125 60.0625 18.3125 54.390625 
z
" id="DejaVuSans-56"/>
      </defs>
      <g transform="translate(109.875 115.565561)scale(0.1 -0.1)">
       <use xlink:href="#DejaVuSans-56"/>
       <use x="63.623047" xlink:href="#DejaVuSans-48"/>
      </g>
     </g>
    </g>
    <g id="text_18">
     <!-- Value -->
     <defs>
      <path d="M 28.609375 0 
L 0.78125 72.90625 
L 11.078125 72.90625 
L 34.1875 11.53125 
L 57.328125 72.90625 
L 67.578125 72.90625 
L 39.796875 0 
z
" id="DejaVuSans-86"/>
      <path d="M 34.28125 27.484375 
Q 23.390625 27.484375 19.1875 25 
Q 14.984375 22.515625 14.984375 16.5 
Q 14.984375 11.71875 18.140625 8.90625 
Q 21.296875 6.109375 26.703125 6.109375 
Q 34.1875 6.109375 38.703125 11.40625 
Q 43.21875 16.703125 43.21875 25.484375 
L 43.21875 27.484375 
z
M 52.203125 31.203125 
L 52.203125 0 
L 43.21875 0 
L 43.21875 8.296875 
Q 40.140625 3.328125 35.546875 0.953125 
Q 30.953125 -1.421875 24.3125 -1.421875 
Q 15.921875 -1.421875 10.953125 3.296875 
Q 6 8.015625 6 15.921875 
Q 6 25.140625 12.171875 29.828125 
Q 18.359375 34.515625 30.609375 34.515625 
L 43.21875 34.515625 
L 43.21875 35.40625 
Q 43.21875 41.609375 39.140625 45 
Q 35.0625 48.390625 27.6875 48.390625 
Q 23 48.390625 18.546875 47.265625 
Q 14.109375 46.140625 10.015625 43.890625 
L 10.015625 52.203125 
Q 14.9375 54.109375 19.578125 55.046875 
Q 24.21875 56 28.609375 56 
Q 40.484375 56 46.34375 49.84375 
Q 52.203125 43.703125 52.203125 31.203125 
z
" id="DejaVuSans-97"/>
      <path d="M 9.421875 75.984375 
L 18.40625 75.984375 
L 18.40625 0 
L 9.421875 0 
z
" id="DejaVuSans-108"/>
      <path d="M 8.5 21.578125 
L 8.5 54.6875 
L 17.484375 54.6875 
L 17.484375 21.921875 
Q 17.484375 14.15625 20.5 10.265625 
Q 23.53125 6.390625 29.59375 6.390625 
Q 36.859375 6.390625 41.078125 11.03125 
Q 45.3125 15.671875 45.3125 23.6875 
L 45.3125 54.6875 
L 54.296875 54.6875 
L 54.296875 0 
L 45.3125 0 
L 45.3125 8.40625 
Q 42.046875 3.421875 37.71875 1 
Q 33.40625 -1.421875 27.6875 -1.421875 
Q 18.265625 -1.421875 13.375 4.4375 
Q 8.5 10.296875 8.5 21.578125 
z
M 31.109375 56 
z
" id="DejaVuSans-117"/>
     </defs>
     <g transform="translate(94.791719 305.458225)rotate(-90)scale(0.13 -0.13)">
      <use xlink:href="#DejaVuSans-86"/>
      <use x="60.658203" xlink:href="#DejaVuSans-97"/>
      <use x="121.9375" xlink:href="#DejaVuSans-108"/>
      <use x="149.720703" xlink:href="#DejaVuSans-117"/>
      <use x="213.099609" xlink:href="#DejaVuSans-101"/>
     </g>
    </g>
   </g>
   <g id="line2d_17">
    <path clip-path="url(#p8fa56a657c)" d="M 166.123636 192.239986 
L 167.987087 369.591391 
L 169.850538 192.239986 
L 197.802301 192.239986 
L 199.665751 192.949005 
L 203.392653 192.949005 
L 205.256104 369.591391 
L 207.119555 192.949005 
L 218.30026 192.949005 
L 220.163711 369.591391 
L 222.027161 192.949005 
L 229.480965 192.949005 
L 231.344416 369.591391 
L 235.071317 369.591391 
L 236.934768 202.488532 
L 246.252022 202.488532 
L 248.115473 369.591391 
L 249.978924 202.488532 
L 253.705826 202.488532 
L 255.569276 369.591391 
L 257.432727 202.488532 
L 264.886531 202.488532 
L 266.749981 369.591391 
L 268.613432 202.488532 
L 276.067236 202.488532 
L 277.930686 369.591391 
L 279.794137 202.488532 
L 283.521039 202.488532 
L 285.38449 369.591391 
L 287.247941 369.591391 
L 289.111391 187.631363 
L 311.472801 187.631363 
L 313.336252 369.591391 
L 315.199703 145.380283 
L 317.063154 369.591391 
L 318.926605 145.380283 
L 320.790056 369.591391 
L 322.653506 369.591391 
L 324.516957 145.380283 
L 328.243859 145.380283 
L 330.10731 133.810384 
L 331.970761 133.810384 
L 333.834212 369.591391 
L 335.697662 133.810384 
L 341.288015 133.810384 
L 343.151466 369.591391 
L 345.014917 369.591391 
L 346.878367 124.689823 
L 348.741818 369.591391 
L 356.195622 369.591391 
L 358.059072 127.84818 
L 359.922523 127.84818 
L 361.785974 369.591391 
L 365.512876 369.591391 
L 367.376327 127.84818 
L 369.239777 127.84818 
L 371.103228 123.819663 
L 372.966679 123.980804 
L 374.83013 124.367542 
L 393.464638 124.367542 
L 395.328089 369.591391 
L 397.19154 124.528682 
L 404.645343 124.528682 
L 406.508794 369.591391 
L 408.372245 201.843969 
L 412.099147 201.843969 
L 413.962597 202.16625 
L 415.826048 202.16625 
L 417.689499 369.591391 
L 419.55295 160.172995 
L 421.416401 160.172995 
L 423.279852 369.591391 
L 425.143302 160.172995 
L 427.006753 160.172995 
L 428.870204 124.883192 
L 430.733655 369.591391 
L 432.597106 369.591391 
L 434.460557 124.883192 
L 440.050909 124.883192 
L 441.91436 369.591391 
L 443.777811 124.883192 
L 449.368163 124.883192 
L 451.231614 369.591391 
L 453.095065 369.591391 
L 454.958516 124.883192 
L 456.821967 124.883192 
L 458.685417 369.591391 
L 460.548868 124.883192 
L 466.139221 124.883192 
L 468.002672 369.591391 
L 469.866122 124.883192 
L 471.729573 369.591391 
L 473.593024 369.591391 
L 475.456475 124.883192 
L 477.319926 369.591391 
L 479.183377 124.883192 
L 484.773729 124.883192 
L 486.63718 369.591391 
L 488.500631 124.883192 
L 490.364082 369.591391 
L 492.227532 124.883192 
L 494.090983 369.591391 
L 499.681336 369.591391 
L 501.544787 124.883192 
L 503.408237 369.591391 
L 505.271688 124.883192 
L 507.135139 369.591391 
L 516.452393 369.591391 
L 518.315844 124.883192 
L 520.179295 369.591391 
L 522.042746 124.883192 
L 523.906197 126.011176 
L 525.769647 126.011176 
L 527.633098 369.591391 
L 529.496549 369.591391 
L 531.36 126.494598 
L 533.223451 206.033626 
L 535.086902 126.494598 
L 536.950353 369.591391 
L 538.813803 369.591391 
L 540.677254 126.494598 
L 542.540705 126.494598 
L 544.404156 369.591391 
L 546.267607 126.494598 
L 548.131058 369.591391 
L 551.857959 369.591391 
L 553.72141 126.494598 
L 555.584861 126.494598 
L 557.448312 369.591391 
L 559.311763 126.494598 
L 561.175213 369.591391 
L 563.038664 369.591391 
L 564.902115 126.494598 
L 566.765566 126.494598 
L 568.629017 369.591391 
L 570.492468 126.494598 
L 572.355918 369.591391 
L 574.219369 126.494598 
L 579.809722 126.494598 
L 581.673173 369.591391 
L 583.536623 126.494598 
L 589.126976 126.494598 
L 590.990427 369.591391 
L 598.44423 369.591391 
L 600.307681 126.494598 
L 602.171132 369.591391 
L 604.034583 369.591391 
L 605.898033 126.494598 
L 609.624935 126.494598 
L 611.488386 369.591391 
L 617.078738 369.591391 
L 618.942189 126.494598 
L 620.80564 369.591391 
L 622.669091 369.591391 
L 624.532542 128.911708 
L 628.259443 128.911708 
L 630.122894 369.591391 
L 631.986345 369.591391 
L 633.849796 128.911708 
L 635.713247 128.911708 
L 637.576698 369.591391 
L 639.440148 369.591391 
L 641.303599 128.911708 
L 646.893952 128.911708 
L 648.757403 369.591391 
L 650.620853 128.911708 
L 656.211206 128.911708 
L 658.074657 369.591391 
L 659.938108 128.911708 
L 661.801558 369.591391 
L 663.665009 369.591391 
L 665.52846 128.911708 
L 667.391911 369.591391 
L 676.709165 369.591391 
L 678.572616 125.012104 
L 680.436067 125.012104 
L 682.299518 369.591391 
L 697.207124 369.591391 
L 699.070575 121.46701 
L 700.934026 369.591391 
L 704.660928 369.591391 
L 706.524378 121.46701 
L 708.387829 369.591391 
L 721.431985 369.591391 
L 723.295436 121.46701 
L 725.158887 118.244197 
L 727.022338 369.591391 
L 732.61269 369.591391 
L 734.476141 116.568334 
L 736.339592 369.591391 
L 740.066494 369.591391 
L 741.929944 119.211041 
L 743.793395 369.591391 
L 745.656846 119.92006 
L 747.520297 369.591391 
L 764.291354 369.591391 
L 766.154805 120.210113 
L 768.018256 369.591391 
L 769.881707 120.339025 
L 771.745158 369.591391 
L 833.239035 369.591391 
L 835.102486 118.888759 
L 836.965937 118.888759 
L 838.829388 369.591391 
L 855.600445 369.591391 
L 857.463896 118.888759 
L 859.327347 369.591391 
L 861.190798 109.413689 
L 863.054249 369.591391 
L 883.552208 369.591391 
L 885.415659 109.413689 
L 887.279109 109.413689 
L 889.14256 369.591391 
L 896.596364 369.591391 
L 896.596364 369.591391 
" style="fill:none;stroke:#808080;stroke-linecap:square;stroke-width:1.5;"/>
   </g>
   <g id="line2d_18">
    <path clip-path="url(#p8fa56a657c)" d="M 166.123636 192.239986 
L 167.987087 369.591391 
L 169.850538 192.239986 
L 197.802301 192.239986 
L 199.665751 192.949005 
L 203.392653 192.949005 
L 205.256104 369.591391 
L 207.119555 192.949005 
L 218.30026 192.949005 
L 220.163711 369.591391 
L 222.027161 192.949005 
L 229.480965 192.949005 
L 231.344416 369.591391 
L 235.071317 369.591391 
L 236.934768 202.488532 
L 246.252022 202.488532 
L 248.115473 369.591391 
L 249.978924 202.488532 
L 253.705826 202.488532 
L 255.569276 369.591391 
L 257.432727 202.488532 
L 264.886531 202.488532 
L 266.749981 369.591391 
L 268.613432 202.488532 
L 276.067236 202.488532 
L 277.930686 369.591391 
L 279.794137 202.488532 
L 283.521039 202.488532 
L 285.38449 369.591391 
L 287.247941 369.591391 
L 289.111391 187.631363 
L 311.472801 187.631363 
L 313.336252 369.591391 
L 315.199703 145.380283 
L 317.063154 369.591391 
L 318.926605 145.380283 
L 320.790056 369.591391 
L 322.653506 369.591391 
L 324.516957 145.380283 
L 328.243859 145.380283 
L 330.10731 133.810384 
L 331.970761 133.810384 
L 333.834212 369.591391 
L 335.697662 133.810384 
L 341.288015 133.810384 
L 343.151466 369.591391 
L 345.014917 369.591391 
L 346.878367 124.689823 
L 348.741818 369.591391 
L 356.195622 369.591391 
L 358.059072 127.84818 
L 359.922523 127.84818 
L 361.785974 369.591391 
L 365.512876 369.591391 
L 367.376327 127.84818 
L 369.239777 127.84818 
L 371.103228 123.819663 
L 372.966679 123.980804 
L 374.83013 124.367542 
L 393.464638 124.367542 
L 395.328089 369.591391 
L 397.19154 124.528682 
L 404.645343 124.528682 
L 406.508794 369.591391 
L 408.372245 201.843969 
L 412.099147 201.843969 
L 413.962597 202.16625 
L 415.826048 202.16625 
L 417.689499 369.591391 
L 419.55295 160.172995 
L 421.416401 160.172995 
L 423.279852 369.591391 
L 425.143302 160.172995 
L 427.006753 160.172995 
L 428.870204 124.883192 
L 430.733655 369.591391 
L 432.597106 369.591391 
L 434.460557 124.883192 
L 440.050909 124.883192 
L 441.91436 369.591391 
L 443.777811 124.883192 
L 449.368163 124.883192 
L 451.231614 369.591391 
L 453.095065 369.591391 
L 454.958516 124.883192 
L 456.821967 124.883192 
L 458.685417 369.591391 
L 460.548868 124.883192 
L 466.139221 124.883192 
L 468.002672 369.591391 
L 469.866122 124.883192 
L 471.729573 369.591391 
L 473.593024 369.591391 
L 475.456475 124.883192 
L 477.319926 369.591391 
L 479.183377 124.883192 
L 484.773729 124.883192 
L 486.63718 369.591391 
L 488.500631 124.883192 
L 490.364082 369.591391 
L 492.227532 124.883192 
L 494.090983 369.591391 
L 499.681336 369.591391 
L 501.544787 124.883192 
L 503.408237 369.591391 
L 505.271688 124.883192 
L 507.135139 369.591391 
L 516.452393 369.591391 
L 518.315844 124.883192 
L 520.179295 369.591391 
L 522.042746 124.883192 
L 523.906197 126.011176 
L 525.769647 126.011176 
L 527.633098 369.591391 
L 529.496549 369.591391 
L 531.36 126.494598 
L 533.223451 206.033626 
L 535.086902 126.494598 
L 536.950353 369.591391 
L 538.813803 369.591391 
L 540.677254 126.494598 
L 542.540705 126.494598 
L 544.404156 369.591391 
L 546.267607 126.494598 
L 548.131058 369.591391 
L 551.857959 369.591391 
L 553.72141 126.494598 
L 555.584861 126.494598 
L 557.448312 369.591391 
L 559.311763 126.494598 
L 561.175213 369.591391 
L 563.038664 369.591391 
L 564.902115 126.494598 
L 566.765566 126.494598 
L 568.629017 369.591391 
L 570.492468 126.494598 
L 572.355918 369.591391 
L 574.219369 126.494598 
L 579.809722 126.494598 
L 581.673173 369.591391 
L 583.536623 126.494598 
L 589.126976 126.494598 
L 590.990427 142.192103 
L 592.853878 210.41189 
L 594.717328 258.16574 
L 596.580779 291.593436 
L 598.44423 314.992822 
L 600.307681 88.2756 
L 602.171132 342.838093 
L 604.034583 350.864082 
L 605.898033 113.385482 
L 607.761484 117.318217 
L 609.624935 120.071131 
L 611.488386 365.094964 
L 613.351837 366.443893 
L 615.215288 367.388142 
L 617.078738 368.049117 
L 618.942189 125.415006 
L 620.80564 368.835677 
L 622.669091 369.062391 
L 624.532542 128.541408 
L 628.259443 128.730261 
L 630.122894 369.464378 
L 631.986345 369.502482 
L 633.849796 128.849472 
L 635.713247 128.868143 
L 637.576698 369.560896 
L 639.440148 369.570044 
L 641.303599 128.896765 
L 646.893952 128.906583 
L 648.757403 369.587804 
L 650.620853 128.909197 
L 656.211206 128.910847 
L 658.074657 369.590788 
L 659.938108 128.911286 
L 661.801558 369.591096 
L 663.665009 369.591185 
L 665.52846 128.911563 
L 667.391911 369.59129 
L 676.709165 369.591374 
L 678.572616 125.012092 
L 680.436067 125.012096 
L 682.299518 369.591386 
L 697.207124 369.591391 
L 699.070575 121.46701 
L 700.934026 369.591391 
L 704.660928 369.591391 
L 706.524378 121.46701 
L 708.387829 369.591391 
L 721.431985 369.591391 
L 723.295436 335.880658 
L 725.158887 268.333751 
L 727.022338 474.654079 
L 728.885788 443.135273 
L 730.749239 421.072108 
L 732.61269 405.627893 
L 734.476141 141.793885 
L 736.339592 387.249277 
L 738.203043 381.951912 
L 740.066494 378.243756 
L 741.929944 125.267696 
L 743.793395 373.83105 
L 745.656846 122.88782 
L 747.520297 371.668824 
L 749.383748 371.045594 
L 751.247199 370.609333 
L 754.9741 370.090183 
L 758.701002 369.835799 
L 764.291354 369.675223 
L 766.154805 120.268795 
L 768.018256 369.632469 
L 769.881707 120.36778 
L 771.745158 369.611519 
L 810.877625 369.591403 
L 833.239035 369.591392 
L 835.102486 358.374899 
L 836.965937 286.529057 
L 838.829388 486.9396 
L 840.692839 451.735137 
L 842.556289 427.092014 
L 844.41974 409.841827 
L 846.283191 397.766696 
L 848.146642 389.314105 
L 850.010093 383.397291 
L 851.873544 379.255521 
L 853.736994 376.356282 
L 855.600445 374.326815 
L 857.463896 122.203556 
L 859.327347 371.911749 
L 861.190798 111.037939 
L 863.054249 370.728367 
L 866.78115 370.148509 
L 870.508052 369.864379 
L 876.098404 369.685026 
L 883.552208 369.613873 
L 885.415659 109.429426 
L 887.279109 109.424705 
L 889.14256 369.599103 
L 896.596364 369.593243 
L 896.596364 369.593243 
" style="fill:none;stroke:#0000ff;stroke-linecap:square;stroke-width:1.5;"/>
   </g>
   <g id="patch_3">
    <path d="M 129.6 506.8728 
L 129.6 68.3424 
" style="fill:none;stroke:#000000;stroke-linecap:square;stroke-linejoin:miter;stroke-width:0.8;"/>
   </g>
   <g id="patch_4">
    <path d="M 933.12 506.8728 
L 933.12 68.3424 
" style="fill:none;stroke:#000000;stroke-linecap:square;stroke-linejoin:miter;stroke-width:0.8;"/>
   </g>
   <g id="patch_5">
    <path d="M 129.6 506.8728 
L 933.12 506.8728 
" style="fill:none;stroke:#000000;stroke-linecap:square;stroke-linejoin:miter;stroke-width:0.8;"/>
   </g>
   <g id="patch_6">
    <path d="M 129.6 68.3424 
L 933.12 68.3424 
" style="fill:none;stroke:#000000;stroke-linecap:square;stroke-linejoin:miter;stroke-width:0.8;"/>
   </g>
   <g id="text_19">
    <!-- dominick 10: ARIMA(1, 0, 2) -->
    <defs>
     <path d="M 45.40625 46.390625 
L 45.40625 75.984375 
L 54.390625 75.984375 
L 54.390625 0 
L 45.40625 0 
L 45.40625 8.203125 
Q 42.578125 3.328125 38.25 0.953125 
Q 33.9375 -1.421875 27.875 -1.421875 
Q 17.96875 -1.421875 11.734375 6.484375 
Q 5.515625 14.40625 5.515625 27.296875 
Q 5.515625 40.1875 11.734375 48.09375 
Q 17.96875 56 27.875 56 
Q 33.9375 56 38.25 53.625 
Q 42.578125 51.265625 45.40625 46.390625 
z
M 14.796875 27.296875 
Q 14.796875 17.390625 18.875 11.75 
Q 22.953125 6.109375 30.078125 6.109375 
Q 37.203125 6.109375 41.296875 11.75 
Q 45.40625 17.390625 45.40625 27.296875 
Q 45.40625 37.203125 41.296875 42.84375 
Q 37.203125 48.484375 30.078125 48.484375 
Q 22.953125 48.484375 18.875 42.84375 
Q 14.796875 37.203125 14.796875 27.296875 
z
" id="DejaVuSans-100"/>
     <path d="M 30.609375 48.390625 
Q 23.390625 48.390625 19.1875 42.75 
Q 14.984375 37.109375 14.984375 27.296875 
Q 14.984375 17.484375 19.15625 11.84375 
Q 23.34375 6.203125 30.609375 6.203125 
Q 37.796875 6.203125 41.984375 11.859375 
Q 46.1875 17.53125 46.1875 27.296875 
Q 46.1875 37.015625 41.984375 42.703125 
Q 37.796875 48.390625 30.609375 48.390625 
z
M 30.609375 56 
Q 42.328125 56 49.015625 48.375 
Q 55.71875 40.765625 55.71875 27.296875 
Q 55.71875 13.875 49.015625 6.21875 
Q 42.328125 -1.421875 30.609375 -1.421875 
Q 18.84375 -1.421875 12.171875 6.21875 
Q 5.515625 13.875 5.515625 27.296875 
Q 5.515625 40.765625 12.171875 48.375 
Q 18.84375 56 30.609375 56 
z
" id="DejaVuSans-111"/>
     <path d="M 54.890625 33.015625 
L 54.890625 0 
L 45.90625 0 
L 45.90625 32.71875 
Q 45.90625 40.484375 42.875 44.328125 
Q 39.84375 48.1875 33.796875 48.1875 
Q 26.515625 48.1875 22.3125 43.546875 
Q 18.109375 38.921875 18.109375 30.90625 
L 18.109375 0 
L 9.078125 0 
L 9.078125 54.6875 
L 18.109375 54.6875 
L 18.109375 46.1875 
Q 21.34375 51.125 25.703125 53.5625 
Q 30.078125 56 35.796875 56 
Q 45.21875 56 50.046875 50.171875 
Q 54.890625 44.34375 54.890625 33.015625 
z
" id="DejaVuSans-110"/>
     <path d="M 48.78125 52.59375 
L 48.78125 44.1875 
Q 44.96875 46.296875 41.140625 47.34375 
Q 37.3125 48.390625 33.40625 48.390625 
Q 24.65625 48.390625 19.8125 42.84375 
Q 14.984375 37.3125 14.984375 27.296875 
Q 14.984375 17.28125 19.8125 11.734375 
Q 24.65625 6.203125 33.40625 6.203125 
Q 37.3125 6.203125 41.140625 7.25 
Q 44.96875 8.296875 48.78125 10.40625 
L 48.78125 2.09375 
Q 45.015625 0.34375 40.984375 -0.53125 
Q 36.96875 -1.421875 32.421875 -1.421875 
Q 20.0625 -1.421875 12.78125 6.34375 
Q 5.515625 14.109375 5.515625 27.296875 
Q 5.515625 40.671875 12.859375 48.328125 
Q 20.21875 56 33.015625 56 
Q 37.15625 56 41.109375 55.140625 
Q 45.0625 54.296875 48.78125 52.59375 
z
" id="DejaVuSans-99"/>
     <path d="M 9.078125 75.984375 
L 18.109375 75.984375 
L 18.109375 31.109375 
L 44.921875 54.6875 
L 56.390625 54.6875 
L 27.390625 29.109375 
L 57.625 0 
L 45.90625 0 
L 18.109375 26.703125 
L 18.109375 0 
L 9.078125 0 
z
" id="DejaVuSans-107"/>
     <path id="DejaVuSans-32"/>
     <path d="M 11.71875 12.40625 
L 22.015625 12.40625 
L 22.015625 0 
L 11.71875 0 
z
M 11.71875 51.703125 
L 22.015625 51.703125 
L 22.015625 39.3125 
L 11.71875 39.3125 
z
" id="DejaVuSans-58"/>
     <path d="M 34.1875 63.1875 
L 20.796875 26.90625 
L 47.609375 26.90625 
z
M 28.609375 72.90625 
L 39.796875 72.90625 
L 67.578125 0 
L 57.328125 0 
L 50.6875 18.703125 
L 17.828125 18.703125 
L 11.1875 0 
L 0.78125 0 
z
" id="DejaVuSans-65"/>
     <path d="M 44.390625 34.1875 
Q 47.5625 33.109375 50.5625 29.59375 
Q 53.5625 26.078125 56.59375 19.921875 
L 66.609375 0 
L 56 0 
L 46.6875 18.703125 
Q 43.0625 26.03125 39.671875 28.421875 
Q 36.28125 30.8125 30.421875 30.8125 
L 19.671875 30.8125 
L 19.671875 0 
L 9.8125 0 
L 9.8125 72.90625 
L 32.078125 72.90625 
Q 44.578125 72.90625 50.734375 67.671875 
Q 56.890625 62.453125 56.890625 51.90625 
Q 56.890625 45.015625 53.6875 40.46875 
Q 50.484375 35.9375 44.390625 34.1875 
z
M 19.671875 64.796875 
L 19.671875 38.921875 
L 32.078125 38.921875 
Q 39.203125 38.921875 42.84375 42.21875 
Q 46.484375 45.515625 46.484375 51.90625 
Q 46.484375 58.296875 42.84375 61.546875 
Q 39.203125 64.796875 32.078125 64.796875 
z
" id="DejaVuSans-82"/>
     <path d="M 9.8125 72.90625 
L 19.671875 72.90625 
L 19.671875 0 
L 9.8125 0 
z
" id="DejaVuSans-73"/>
     <path d="M 9.8125 72.90625 
L 24.515625 72.90625 
L 43.109375 23.296875 
L 61.8125 72.90625 
L 76.515625 72.90625 
L 76.515625 0 
L 66.890625 0 
L 66.890625 64.015625 
L 48.09375 14.015625 
L 38.1875 14.015625 
L 19.390625 64.015625 
L 19.390625 0 
L 9.8125 0 
z
" id="DejaVuSans-77"/>
     <path d="M 31 75.875 
Q 24.46875 64.65625 21.28125 53.65625 
Q 18.109375 42.671875 18.109375 31.390625 
Q 18.109375 20.125 21.3125 9.0625 
Q 24.515625 -2 31 -13.1875 
L 23.1875 -13.1875 
Q 15.875 -1.703125 12.234375 9.375 
Q 8.59375 20.453125 8.59375 31.390625 
Q 8.59375 42.28125 12.203125 53.3125 
Q 15.828125 64.359375 23.1875 75.875 
z
" id="DejaVuSans-40"/>
     <path d="M 11.71875 12.40625 
L 22.015625 12.40625 
L 22.015625 4 
L 14.015625 -11.625 
L 7.71875 -11.625 
L 11.71875 4 
z
" id="DejaVuSans-44"/>
     <path d="M 8.015625 75.875 
L 15.828125 75.875 
Q 23.140625 64.359375 26.78125 53.3125 
Q 30.421875 42.28125 30.421875 31.390625 
Q 30.421875 20.453125 26.78125 9.375 
Q 23.140625 -1.703125 15.828125 -13.1875 
L 8.015625 -13.1875 
Q 14.5 -2 17.703125 9.0625 
Q 20.90625 20.125 20.90625 31.390625 
Q 20.90625 42.671875 17.703125 53.65625 
Q 14.5 64.65625 8.015625 75.875 
z
" id="DejaVuSans-41"/>
    </defs>
    <g transform="translate(447.569063 62.3424)scale(0.12 -0.12)">
     <use xlink:href="#DejaVuSans-100"/>
     <use x="63.476562" xlink:href="#DejaVuSans-111"/>
     <use x="124.658203" xlink:href="#DejaVuSans-109"/>
     <use x="222.070312" xlink:href="#DejaVuSans-105"/>
     <use x="249.853516" xlink:href="#DejaVuSans-110"/>
     <use x="313.232422" xlink:href="#DejaVuSans-105"/>
     <use x="341.015625" xlink:href="#DejaVuSans-99"/>
     <use x="395.996094" xlink:href="#DejaVuSans-107"/>
     <use x="453.90625" xlink:href="#DejaVuSans-32"/>
     <use x="485.693359" xlink:href="#DejaVuSans-49"/>
     <use x="549.316406" xlink:href="#DejaVuSans-48"/>
     <use x="612.939453" xlink:href="#DejaVuSans-58"/>
     <use x="646.630859" xlink:href="#DejaVuSans-32"/>
     <use x="678.417969" xlink:href="#DejaVuSans-65"/>
     <use x="746.826172" xlink:href="#DejaVuSans-82"/>
     <use x="816.308594" xlink:href="#DejaVuSans-73"/>
     <use x="845.800781" xlink:href="#DejaVuSans-77"/>
     <use x="932.080078" xlink:href="#DejaVuSans-65"/>
     <use x="1000.488281" xlink:href="#DejaVuSans-40"/>
     <use x="1039.501953" xlink:href="#DejaVuSans-49"/>
     <use x="1103.125" xlink:href="#DejaVuSans-44"/>
     <use x="1134.912109" xlink:href="#DejaVuSans-32"/>
     <use x="1166.699219" xlink:href="#DejaVuSans-48"/>
     <use x="1230.322266" xlink:href="#DejaVuSans-44"/>
     <use x="1262.109375" xlink:href="#DejaVuSans-32"/>
     <use x="1293.896484" xlink:href="#DejaVuSans-50"/>
     <use x="1357.519531" xlink:href="#DejaVuSans-41"/>
    </g>
   </g>
   <g id="legend_1">
    <g id="patch_7">
     <path d="M 136.6 120.376775 
L 207.759375 120.376775 
Q 209.759375 120.376775 209.759375 118.376775 
L 209.759375 75.3424 
Q 209.759375 73.3424 207.759375 73.3424 
L 136.6 73.3424 
Q 134.6 73.3424 134.6 75.3424 
L 134.6 118.376775 
Q 134.6 120.376775 136.6 120.376775 
z
" style="fill:#ffffff;opacity:0.8;stroke:#cccccc;stroke-linejoin:miter;"/>
    </g>
    <g id="line2d_19">
     <path d="M 138.6 81.440837 
L 158.6 81.440837 
" style="fill:none;stroke:#808080;stroke-linecap:square;stroke-width:1.5;"/>
    </g>
    <g id="line2d_20"/>
    <g id="text_20">
     <!-- Origin -->
     <defs>
      <path d="M 39.40625 66.21875 
Q 28.65625 66.21875 22.328125 58.203125 
Q 16.015625 50.203125 16.015625 36.375 
Q 16.015625 22.609375 22.328125 14.59375 
Q 28.65625 6.59375 39.40625 6.59375 
Q 50.140625 6.59375 56.421875 14.59375 
Q 62.703125 22.609375 62.703125 36.375 
Q 62.703125 50.203125 56.421875 58.203125 
Q 50.140625 66.21875 39.40625 66.21875 
z
M 39.40625 74.21875 
Q 54.734375 74.21875 63.90625 63.9375 
Q 73.09375 53.65625 73.09375 36.375 
Q 73.09375 19.140625 63.90625 8.859375 
Q 54.734375 -1.421875 39.40625 -1.421875 
Q 24.03125 -1.421875 14.8125 8.828125 
Q 5.609375 19.09375 5.609375 36.375 
Q 5.609375 53.65625 14.8125 63.9375 
Q 24.03125 74.21875 39.40625 74.21875 
z
" id="DejaVuSans-79"/>
      <path d="M 41.109375 46.296875 
Q 39.59375 47.171875 37.8125 47.578125 
Q 36.03125 48 33.890625 48 
Q 26.265625 48 22.1875 43.046875 
Q 18.109375 38.09375 18.109375 28.8125 
L 18.109375 0 
L 9.078125 0 
L 9.078125 54.6875 
L 18.109375 54.6875 
L 18.109375 46.1875 
Q 20.953125 51.171875 25.484375 53.578125 
Q 30.03125 56 36.53125 56 
Q 37.453125 56 38.578125 55.875 
Q 39.703125 55.765625 41.0625 55.515625 
z
" id="DejaVuSans-114"/>
      <path d="M 45.40625 27.984375 
Q 45.40625 37.75 41.375 43.109375 
Q 37.359375 48.484375 30.078125 48.484375 
Q 22.859375 48.484375 18.828125 43.109375 
Q 14.796875 37.75 14.796875 27.984375 
Q 14.796875 18.265625 18.828125 12.890625 
Q 22.859375 7.515625 30.078125 7.515625 
Q 37.359375 7.515625 41.375 12.890625 
Q 45.40625 18.265625 45.40625 27.984375 
z
M 54.390625 6.78125 
Q 54.390625 -7.171875 48.1875 -13.984375 
Q 42 -20.796875 29.203125 -20.796875 
Q 24.46875 -20.796875 20.265625 -20.09375 
Q 16.0625 -19.390625 12.109375 -17.921875 
L 12.109375 -9.1875 
Q 16.0625 -11.328125 19.921875 -12.34375 
Q 23.78125 -13.375 27.78125 -13.375 
Q 36.625 -13.375 41.015625 -8.765625 
Q 45.40625 -4.15625 45.40625 5.171875 
L 45.40625 9.625 
Q 42.625 4.78125 38.28125 2.390625 
Q 33.9375 0 27.875 0 
Q 17.828125 0 11.671875 7.65625 
Q 5.515625 15.328125 5.515625 27.984375 
Q 5.515625 40.671875 11.671875 48.328125 
Q 17.828125 56 27.875 56 
Q 33.9375 56 38.28125 53.609375 
Q 42.625 51.21875 45.40625 46.390625 
L 45.40625 54.6875 
L 54.390625 54.6875 
z
" id="DejaVuSans-103"/>
     </defs>
     <g transform="translate(166.6 84.940837)scale(0.1 -0.1)">
      <use xlink:href="#DejaVuSans-79"/>
      <use x="78.710938" xlink:href="#DejaVuSans-114"/>
      <use x="119.824219" xlink:href="#DejaVuSans-105"/>
      <use x="147.607422" xlink:href="#DejaVuSans-103"/>
      <use x="211.083984" xlink:href="#DejaVuSans-105"/>
      <use x="238.867188" xlink:href="#DejaVuSans-110"/>
     </g>
    </g>
    <g id="line2d_21">
     <path d="M 138.6 96.118963 
L 158.6 96.118963 
" style="fill:none;stroke:#0000ff;stroke-linecap:square;stroke-width:1.5;"/>
    </g>
    <g id="line2d_22"/>
    <g id="text_21">
     <!-- Correct -->
     <defs>
      <path d="M 64.40625 67.28125 
L 64.40625 56.890625 
Q 59.421875 61.53125 53.78125 63.8125 
Q 48.140625 66.109375 41.796875 66.109375 
Q 29.296875 66.109375 22.65625 58.46875 
Q 16.015625 50.828125 16.015625 36.375 
Q 16.015625 21.96875 22.65625 14.328125 
Q 29.296875 6.6875 41.796875 6.6875 
Q 48.140625 6.6875 53.78125 8.984375 
Q 59.421875 11.28125 64.40625 15.921875 
L 64.40625 5.609375 
Q 59.234375 2.09375 53.4375 0.328125 
Q 47.65625 -1.421875 41.21875 -1.421875 
Q 24.65625 -1.421875 15.125 8.703125 
Q 5.609375 18.84375 5.609375 36.375 
Q 5.609375 53.953125 15.125 64.078125 
Q 24.65625 74.21875 41.21875 74.21875 
Q 47.75 74.21875 53.53125 72.484375 
Q 59.328125 70.75 64.40625 67.28125 
z
" id="DejaVuSans-67"/>
      <path d="M 18.3125 70.21875 
L 18.3125 54.6875 
L 36.8125 54.6875 
L 36.8125 47.703125 
L 18.3125 47.703125 
L 18.3125 18.015625 
Q 18.3125 11.328125 20.140625 9.421875 
Q 21.96875 7.515625 27.59375 7.515625 
L 36.8125 7.515625 
L 36.8125 0 
L 27.59375 0 
Q 17.1875 0 13.234375 3.875 
Q 9.28125 7.765625 9.28125 18.015625 
L 9.28125 47.703125 
L 2.6875 47.703125 
L 2.6875 54.6875 
L 9.28125 54.6875 
L 9.28125 70.21875 
z
" id="DejaVuSans-116"/>
     </defs>
     <g transform="translate(166.6 99.618963)scale(0.1 -0.1)">
      <use xlink:href="#DejaVuSans-67"/>
      <use x="69.824219" xlink:href="#DejaVuSans-111"/>
      <use x="131.005859" xlink:href="#DejaVuSans-114"/>
      <use x="170.369141" xlink:href="#DejaVuSans-114"/>
      <use x="209.232422" xlink:href="#DejaVuSans-101"/>
      <use x="270.755859" xlink:href="#DejaVuSans-99"/>
      <use x="325.736328" xlink:href="#DejaVuSans-116"/>
     </g>
    </g>
    <g id="PathCollection_2">
     <g>
      <use style="fill:#ff0000;stroke:#ff0000;" x="148.6" xlink:href="#m6584ce735d" y="111.672087"/>
     </g>
    </g>
    <g id="text_22">
     <!-- Outliers -->
     <defs>
      <path d="M 44.28125 53.078125 
L 44.28125 44.578125 
Q 40.484375 46.53125 36.375 47.5 
Q 32.28125 48.484375 27.875 48.484375 
Q 21.1875 48.484375 17.84375 46.4375 
Q 14.5 44.390625 14.5 40.28125 
Q 14.5 37.15625 16.890625 35.375 
Q 19.28125 33.59375 26.515625 31.984375 
L 29.59375 31.296875 
Q 39.15625 29.25 43.1875 25.515625 
Q 47.21875 21.78125 47.21875 15.09375 
Q 47.21875 7.46875 41.1875 3.015625 
Q 35.15625 -1.421875 24.609375 -1.421875 
Q 20.21875 -1.421875 15.453125 -0.5625 
Q 10.6875 0.296875 5.421875 2 
L 5.421875 11.28125 
Q 10.40625 8.6875 15.234375 7.390625 
Q 20.0625 6.109375 24.8125 6.109375 
Q 31.15625 6.109375 34.5625 8.28125 
Q 37.984375 10.453125 37.984375 14.40625 
Q 37.984375 18.0625 35.515625 20.015625 
Q 33.0625 21.96875 24.703125 23.78125 
L 21.578125 24.515625 
Q 13.234375 26.265625 9.515625 29.90625 
Q 5.8125 33.546875 5.8125 39.890625 
Q 5.8125 47.609375 11.28125 51.796875 
Q 16.75 56 26.8125 56 
Q 31.78125 56 36.171875 55.265625 
Q 40.578125 54.546875 44.28125 53.078125 
z
" id="DejaVuSans-115"/>
     </defs>
     <g transform="translate(166.6 114.297087)scale(0.1 -0.1)">
      <use xlink:href="#DejaVuSans-79"/>
      <use x="78.710938" xlink:href="#DejaVuSans-117"/>
      <use x="142.089844" xlink:href="#DejaVuSans-116"/>
      <use x="181.298828" xlink:href="#DejaVuSans-108"/>
      <use x="209.082031" xlink:href="#DejaVuSans-105"/>
      <use x="236.865234" xlink:href="#DejaVuSans-101"/>
      <use x="298.388672" xlink:href="#DejaVuSans-114"/>
      <use x="339.501953" xlink:href="#DejaVuSans-115"/>
     </g>
    </g>
   </g>
  </g>
 </g>
 <defs>
  <clipPath id="p8fa56a657c">
   <rect height="438.5304" width="803.52" x="129.6" y="68.3424"/>
  </clipPath>
 </defs>
</svg>
